<svg width="30.000000" height="30.000000" viewBox="0 0 30 30" fill="none" xmlns="http://www.w3.org/2000/svg" xmlns:xlink="http://www.w3.org/1999/xlink">
	<desc>
			Created with Pixso.
	</desc>
	<defs/>
	<path id="Vector" d="M15 0C6.66 0 0 6.66 0 15C0 23.33 6.66 30 15 30C23.33 30 30 23.33 30 15C30 6.66 23.33 0 15 0ZM15 11.66C16.83 11.66 18.33 13.16 18.33 15C18.33 16.83 16.83 18.33 15 18.33C13.16 18.33 11.66 16.83 11.66 15C11.66 13.16 13.16 11.66 15 11.66ZM19.66 8.33C19.66 7.16 20.66 6.33 21.66 6.33C22.66 6.33 23.66 7.33 23.66 8.33C23.66 9.33 22.83 10.33 21.66 10.33C20.5 10.33 19.66 9.5 19.66 8.33ZM15 26.66C8.5 26.66 3.33 21.5 3.33 15L8.33 15C8.33 18.66 11.33 21.66 15 21.66C18.66 21.66 21.66 18.66 21.66 15L26.66 15C26.66 21.5 21.5 26.66 15 26.66Z" fill="#5C5C5E" fill-opacity="1.000000" fill-rule="nonzero"/>
</svg>
