<svg width="30.000000" height="30.000000" viewBox="0 0 30 30" fill="none" xmlns="http://www.w3.org/2000/svg" xmlns:xlink="http://www.w3.org/1999/xlink">
	<desc>
			Created with Pixso.
	</desc>
	<defs/>
	<path id="Vector" d="M17.5 14.73L13.99 13.1C13.68 12.95 13.43 13.11 13.43 13.45L13.43 16.54C13.43 16.88 13.68 17.04 13.99 16.89L17.5 15.26C17.81 15.11 17.81 14.88 17.5 14.73ZM15 0C6.71 0 0 6.71 0 15C0 23.28 6.71 30 15 30C23.28 30 30 23.28 30 15C30 6.71 23.28 0 15 0ZM15 21.09C7.32 21.09 7.18 20.4 7.18 15C7.18 9.59 7.32 8.9 15 8.9C22.67 8.9 22.81 9.59 22.81 15C22.81 20.4 22.67 21.09 15 21.09Z" fill="#5C5C5E" fill-opacity="1.000000" fill-rule="nonzero"/>
</svg>
